<?xml version="1.0" encoding="UTF-8" standalone="no"?>
<svg
   xmlns:osb="http://www.openswatchbook.org/uri/2009/osb"
   xmlns:dc="http://purl.org/dc/elements/1.1/"
   xmlns:cc="http://creativecommons.org/ns#"
   xmlns:rdf="http://www.w3.org/1999/02/22-rdf-syntax-ns#"
   xmlns:svg="http://www.w3.org/2000/svg"
   xmlns="http://www.w3.org/2000/svg"
   xmlns:xlink="http://www.w3.org/1999/xlink"
   xmlns:sodipodi="http://sodipodi.sourceforge.net/DTD/sodipodi-0.dtd"
   xmlns:inkscape="http://www.inkscape.org/namespaces/inkscape"
   width="404.26157"
   height="404.12946"
   id="svg2"
   version="1.1"
   inkscape:version="0.48.3.1 r9886"
   sodipodi:docname="logo.svg">
  <defs
     id="defs27">
    <pattern
       inkscape:collect="always"
       xlink:href="#Wavywhite"
       id="pattern5430"
       patternTransform="translate(8.230317,9.3125)" />
    <pattern
       inkscape:stockid="Wavy white"
       id="Wavywhite"
       height="5.1805778"
       width="30.066020"
       patternUnits="userSpaceOnUse"
       inkscape:collect="always">
      <path
         id="path5187"
         d="M 7.597,0.061 C 5.079,-0.187 2.656,0.302 -0.01,1.788 L -0.01,3.061 C 2.773,1.431 5.173,1.052 7.472,1.280 C 9.770,1.508 11.969,2.361 14.253,3.218 C 18.820,4.931 23.804,6.676 30.066,3.061 L 30.062,1.788 C 23.622,5.497 19.246,3.770 14.691,2.061 C 12.413,1.207 10.115,0.311 7.597,0.061 z "
         style="fill:white;stroke:none;" />
    </pattern>
    <linearGradient
       id="linearGradient5396"
       osb:paint="solid">
      <stop
         style="stop-color:#000000;stop-opacity:1;"
         offset="0"
         id="stop5398" />
    </linearGradient>
  </defs>
  <sodipodi:namedview
     pagecolor="#ffffff"
     bordercolor="#666666"
     borderopacity="1"
     objecttolerance="10"
     gridtolerance="10"
     guidetolerance="10"
     inkscape:pageopacity="0"
     inkscape:pageshadow="2"
     inkscape:window-width="1366"
     inkscape:window-height="743"
     id="namedview25"
     showgrid="false"
     inkscape:zoom="0.61139896"
     inkscape:cx="-142.53081"
     inkscape:cy="201.81696"
     inkscape:window-x="0"
     inkscape:window-y="0"
     inkscape:window-maximized="1"
     inkscape:current-layer="layer3"
     fit-margin-top="0"
     fit-margin-left="0"
     fit-margin-right="0"
     fit-margin-bottom="0" />
  <title
     id="title4">black gear</title>
  <metadata
     id="metadata7">image/svg+xml<rdf:RDF>
  <cc:Work
     rdf:about="">
    <dc:format>image/svg+xml</dc:format>
    <dc:type
       rdf:resource="http://purl.org/dc/dcmitype/StillImage" />
  </cc:Work>
</rdf:RDF>
</metadata>
  <g
     id="g7"
     transform="translate(8.230317,9.3125)">
    <title
       id="title9">Layer 1</title>
    <g
       id="svg_15">
      <g
         id="layer1">
        <g
           id="svg_2">
          <path
             id="svg_3"
             d="M 62.8125,48.072689 79.25,93.260193 c -0.03551,0.03838 -0.05829,0.08658 -0.09375,0.125 l 0.125,0.375 c -6.91243,7.533907 -13.130524,15.847407 -18.5,24.906247 l -49.5,-1.34375 c -0.98158,2.22409 -1.98515,4.44559 -2.875,6.6875 -1.21228,3.05432 -2.33096,6.10504 -3.375,9.1875 -1.04366,3.08258 -2.02916,6.20716 -2.90625,9.3125 -0.78567,2.78211 -1.47246,5.5499 -2.125,8.34375 l 40.5,27.09375 c -0.04924,0.44422 -0.0174,0.89896 -0.0625,1.34375 l 0.28125,0.1875 c -0.465698,4.72357 -0.62151,9.44803 -0.625,14.15625 l 88.9375,0 c 0.0178,-2.83725 0.25076,-5.67804 0.65625,-8.46875 0.40546,-2.79071 1.00079,-5.54474 1.78125,-8.25 0.78046,-2.70526 1.73221,-5.35653 2.875,-7.9375 1.14279,-2.58096 2.47629,-5.08221 3.96875,-7.5 1.49246,-2.41778 3.13928,-4.75302 4.96875,-6.96875 1.82947,-2.21573 3.84616,-4.30646 6,-6.28125 2.15384,-1.97476 4.4407,-3.83627 6.90625,-5.53125 2.46555,-1.69494 5.11041,-3.24875 7.875,-4.625 1.9729,-0.98214 3.94766,-1.82794 5.96875,-2.59375 2.02109,-0.76581 4.07019,-1.44589 6.125,-2 2.05481,-0.55411 4.11346,-0.99676 6.1875,-1.34375 0.97446,-0.16302 1.96115,-0.22571 2.9375,-0.34375 0.33383,-0.043 0.66531,-0.0871 1,-0.125 0.76926,-0.081 1.54321,-0.22778 2.3125,-0.28125 0.75201,-0.0522 1.49866,-0.005 2.25,-0.0312 0.85345,-0.0369 1.70621,-0.059 2.5625,-0.0625 0.46866,0.002 0.93835,-0.0433 1.40625,-0.0312 0.34445,0.009 0.68732,0.0482 1.03125,0.0625 1.71768,0.0572 3.43722,0.21198 5.15625,0.40625 7.37845,0.83383 14.74649,2.85727 21.75,6.34375 22.11658,11.01007 34.82608,32.86463 34.96875,55.5625 l 89.03122,0 c -9.8e-4,-4.72622 -0.21802,-9.47732 -0.6875,-14.21875 l 41,-27.4375 c -0.012,-0.0529 -0.0504,-0.10336 -0.0625,-0.15625 -0.7121,-3.12265 -1.49799,-6.23837 -2.375,-9.34375 -0.87695,-3.10534 -1.83124,-6.19867 -2.875,-9.28125 -1.0437,-3.08258 -2.16272,-6.13318 -3.375,-9.1875 -0.88007,-2.21737 -1.84046,-4.42917 -2.8125,-6.625 l -49.12497,1.34375 c -0.32849,-0.5552 -0.72672,-1.07364 -1.0625,-1.625 l -0.3125,0 c -2.40787,-3.95306 -4.96716,-7.77524 -7.6875,-11.4375 -2.72034,-3.66226 -5.58698,-7.169858 -8.59375,-10.531247 l 16.6875,-45.812504 c -1.45001,-1.264618 -2.89124,-2.53091 -4.375,-3.75 -2.46719,-2.02713 -4.97525,-4.006409 -7.53125,-5.90625 -2.55603,-1.899837 -5.17328,-3.729248 -7.8125,-5.5 -2.63925,-1.770748 -5.31439,-3.485069 -8.03125,-5.125 -0.77728,-0.46917 -1.55521,-0.92767 -2.34375,-1.375 l -39,29.34375 c -0.56766,-0.248898 -1.14954,-0.4147 -1.71875,-0.65625 l -0.0937,0.0625 c -4.30518,-1.830898 -8.70319,-3.437378 -13.15625,-4.875 -4.45306,-1.437618 -8.95871,-2.680019 -13.53125,-3.71875 l -0.0625,-0.15625 c -0.0222,-0.0049 -0.0403,-0.0263 -0.0625,-0.03125 L 213.71875,1.07269 c -1.97339,-0.20361 -3.92493,-0.44845 -5.90625,-0.59375 -3.18457,-0.23352 -6.39328,-0.3544 -9.59375,-0.4375 -2.14056,-0.05557 -4.28888,-0.0383 -6.4375,-0.03125 -1.07559,0.01142 -2.14496,-0.02786 -3.21875,0 -3.20038,0.0831 -6.37793,0.23523 -9.5625,0.46875 -1.01263,0.07422 -2.02094,0.22302 -3.03125,0.3125 l -14,46.374999 c -10.15869,2.096832 -20.0712,5.180363 -29.59375,9.21875 L 93,26.791439 c -1.315666,0.753792 -2.638786,1.46594 -3.9375,2.25 -2.716919,1.6399 -5.391724,3.35434 -8.03125,5.125 -2.639267,1.770782 -5.256523,3.600132 -7.8125,5.5 -2.556053,1.899811 -5.063957,3.87912 -7.53125,5.90625 -0.980408,0.805641 -1.911572,1.67136 -2.875,2.5 z m 181.78125,39.281254 c 1.3598,0.09421 2.74118,0.451538 4.03125,1.09375 5.16028,2.568909 7.22305,8.770744 4.59375,13.812497 -2.62933,5.04172 -8.96472,7.03766 -14.125,4.46875 -5.16028,-2.56888 -7.22308,-8.739499 -4.59375,-13.781247 1.97195,-3.781311 6.01437,-5.876373 10.09375,-5.59375 z m -148.875,47.281247 c 1.359772,0.0942 2.74118,0.45154 4.03125,1.09375 5.16037,2.56894 7.22308,8.73957 4.59375,13.78125 -2.6294,5.04172 -8.964691,7.03766 -14.125,4.46875 -5.160309,-2.56888 -7.223152,-8.73953 -4.59375,-13.78125 1.972023,-3.78128 6.014397,-5.84512 10.09375,-5.5625 z"
             stroke-miterlimit="4"
             inkscape:connector-curvature="0"
             style="fill:#000000;fill-rule:nonzero;stroke-width:33.80530548;stroke-linecap:round;stroke-miterlimit:4;stroke-dashoffset:0;marker-start:none;marker-mid:none;marker-end:none" />
          <path
             id="svg_4"
             d="m 324.25,337.92725 -16.4375,-45.1875 c 0.0355,-0.0384 0.0583,-0.0866 0.0937,-0.125 l -0.125,-0.375 c 6.91241,-7.53388 13.13052,-15.84742 18.5,-24.90625 l 49.49997,1.34375 c 0.98163,-2.22413 1.98517,-4.44562 2.875,-6.6875 1.21228,-3.05433 2.33099,-6.10505 3.375,-9.1875 1.0437,-3.08258 2.02917,-6.20719 2.90625,-9.3125 0.78571,-2.78211 1.47247,-5.5499 2.125,-8.34375 l -40.5,-27.09375 c 0.0492,-0.44422 0.0174,-0.89896 0.0625,-1.34375 l -0.28125,-0.1875 c 0.4657,-4.72358 0.62152,-9.44806 0.625,-14.15625 l -88.93747,0 c -0.0178,2.83725 -0.25079,5.67804 -0.65625,8.46875 -0.40549,2.79068 -1.00079,5.5447 -1.78125,8.25 -0.78046,2.70526 -1.73221,5.35653 -2.875,7.9375 -1.14279,2.58096 -2.47629,5.08221 -3.96875,7.5 -1.49246,2.41775 -3.13928,4.75302 -4.96875,6.96875 -1.82947,2.21569 -3.84616,4.30645 -6,6.28125 -2.15384,1.97476 -4.4407,3.83627 -6.90625,5.53125 -2.46555,1.69494 -5.11041,3.24871 -7.875,4.625 -1.9729,0.98211 -3.94766,1.82791 -5.96875,2.59375 -2.02109,0.7658 -4.07019,1.44589 -6.125,2 -2.05481,0.55407 -4.11346,0.99676 -6.1875,1.34375 -0.97446,0.16302 -1.96115,0.2257 -2.9375,0.34375 -0.33383,0.043 -0.66531,0.0872 -1,0.125 -0.76929,0.081 -1.54321,0.22778 -2.3125,0.28125 -0.75201,0.0522 -1.49866,0.005 -2.25,0.0312 -0.85346,0.0369 -1.70621,0.059 -2.5625,0.0625 -0.46866,-0.002 -0.93835,0.0433 -1.40625,0.0312 -0.34445,-0.009 -0.68732,-0.0482 -1.03125,-0.0625 -1.71768,-0.0572 -3.43723,-0.21198 -5.15625,-0.40625 -7.37845,-0.83387 -14.74649,-2.85727 -21.75,-6.34375 -22.11658,-11.01007 -34.82608,-32.86463 -34.96875,-55.5625 l -89.03125,0 c 0.001,4.72619 0.21806,9.47729 0.6875,14.21875 L 0,234.021 c 0.01202,0.0529 0.05045,0.10336 0.0625,0.15625 0.71211,3.12265 1.49802,6.23837 2.375,9.34375 0.877,3.10531 1.83127,6.19867 2.875,9.28125 1.04373,3.08258 2.16275,6.13317 3.375,9.1875 0.88008,2.21734 1.84045,4.42919 2.8125,6.625 L 60.625,267.271 c 0.328491,0.55517 0.726719,1.07367 1.0625,1.625 l 0.3125,0 c 2.407852,3.95306 4.967163,7.7752 7.6875,11.4375 2.720322,3.66223 5.58696,7.16986 8.59375,10.53125 l -16.6875,45.8125 c 1.450008,1.26458 2.891243,2.53088 4.375,3.75 2.467194,2.0271 4.97525,4.00641 7.53125,5.90618 2.556053,1.89991 5.173264,3.72931 7.8125,5.5 2.639252,1.77082 5.314392,3.48511 8.03125,5.125 0.777283,0.46924 1.555183,0.92774 2.34375,1.375 l 39,-29.34368 c 0.56766,0.2489 1.14954,0.41473 1.71875,0.65618 l 0.0937,-0.0625 c 4.30518,1.83094 8.70319,3.43744 13.15625,4.875 4.45306,1.43763 8.95871,2.68012 13.53125,3.71882 l 0.0625,0.15618 c 0.0222,0.005 0.0403,0.0263 0.0625,0.0313 l 14.03125,46.5625 c 1.97339,0.20361 3.9249,0.44842 5.90625,0.59368 3.18457,0.23365 6.39328,0.35444 9.59375,0.4375 2.14056,0.0556 4.28888,0.0383 6.4375,0.0313 1.07559,-0.0114 2.14496,0.0279 3.21875,0 3.20038,-0.0831 6.37793,-0.2353 9.5625,-0.46882 1.01263,-0.0742 2.0209,-0.22296 3.03125,-0.3125 l 14,-46.375 c 10.15869,-2.0968 20.0712,-5.18029 29.59375,-9.21868 l 39.375,29.59368 c 1.31567,-0.75366 2.63876,-1.46588 3.9375,-2.25 2.71692,-1.63989 5.39172,-3.3543 8.03125,-5.125 2.63928,-1.77069 5.25653,-3.60009 7.8125,-5.5 2.55606,-1.89978 5.06396,-3.87908 7.53125,-5.90618 0.98041,-0.80567 1.91156,-1.67139 2.875,-2.5 z M 142.46875,298.64593 c -1.3598,-0.0942 -2.74118,-0.45147 -4.03125,-1.09368 -5.16028,-2.56891 -7.22305,-8.77082 -4.59375,-13.8125 2.6293,-5.04175 8.96472,-7.03766 14.125,-4.46875 5.16028,2.56884 7.22305,8.73956 4.59375,13.78125 -1.97199,3.78131 -6.0144,5.8764 -10.09375,5.59368 z m 148.875,-47.28118 c -1.35977,-0.0942 -2.74118,-0.45154 -4.03125,-1.09375 -5.16037,-2.56894 -7.22308,-8.73957 -4.59375,-13.78125 2.62939,-5.04172 8.96469,-7.03766 14.125,-4.46875 5.16031,2.56887 7.22314,8.7395 4.59375,13.78125 -1.97202,3.78128 -6.01444,5.84512 -10.09375,5.5625 z"
             stroke-miterlimit="4"
             inkscape:connector-curvature="0"
             style="fill:#000000;fill-rule:nonzero;stroke-width:33.80530548;stroke-linecap:round;stroke-miterlimit:4;stroke-dashoffset:0;marker-start:none;marker-mid:none;marker-end:none" />
        </g>
        <path
           id="svg_5"
           d="m 193.73236,98.699654 c -51.38983,0 -93.33093,41.899436 -93.33093,93.289266 0,51.38983 41.9411,93.33096 93.33093,93.33096 51.38986,0 93.28928,-41.94113 93.28928,-93.33096 0,-51.38983 -41.89942,-93.289266 -93.28928,-93.289266 z m 0,21.300616 c 39.86197,0 71.98865,32.12668 71.98865,71.98865 0,39.86194 -32.12668,72.03031 -71.98865,72.03031 -39.86194,0 -72.0303,-32.16837 -72.0303,-72.03031 0,-39.86197 32.16836,-71.98865 72.0303,-71.98865 z"
           stroke-miterlimit="4"
           inkscape:connector-curvature="0"
           style="fill:#ffffff;fill-rule:nonzero;stroke-width:15.9727726;stroke-linejoin:round;stroke-miterlimit:4;stroke-dashoffset:0" />
        <path
           id="svg_6"
           d="m 193.73199,101.826 c -49.68299,0 -90.16299,40.47899 -90.16299,90.163 0,49.684 40.48,90.16301 90.16299,90.16301 49.68401,0 90.12201,-40.47901 90.12201,-90.16301 0,-49.68401 -40.438,-90.163 -90.122,-90.163 z m 0,15.006 c 41.56801,0 75.15702,33.589 75.15702,75.157 0,41.56801 -33.58901,75.157 -75.15702,75.157 -41.56799,0 -75.15599,-33.58899 -75.15599,-75.157 0,-41.56799 33.588,-75.157 75.15599,-75.157 z"
           stroke-miterlimit="4"
           inkscape:connector-curvature="0"
           style="fill:#000000;fill-rule:nonzero;stroke-width:11.24526405;stroke-linejoin:round;stroke-miterlimit:4;stroke-dashoffset:0" />
      </g>
      <circle
         id="svg_7"
         r="94.683594"
         cy="192.58348"
         cx="193.53133"
         sodipodi:cx="193.53133"
         sodipodi:cy="192.58348"
         sodipodi:rx="94.683594"
         sodipodi:ry="94.683594"
         style="fill:#ffffff;stroke:#000000;stroke-width:5"
         d="m 288.21492,192.58348 c 0,52.29231 -42.39129,94.68359 -94.68359,94.68359 -52.29231,0 -94.683597,-42.39128 -94.683597,-94.68359 0,-52.2923 42.391287,-94.683593 94.683597,-94.683593 52.2923,0 94.68359,42.391293 94.68359,94.683593 z" />
      <path
         d="m 97.531311,142.08334 c -1,0 -1.292892,0.2929 -2,1 -1.414215,1.41422 -1.486259,2.82375 -2,5 -0.229752,0.97326 -0.292892,2.70711 -1,2 -0.707108,-0.7071 0.292892,-1.29289 1,-2 1.414215,-1.41421 1,-2 1,-3 l 0,-1 0,-1"
         id="svg_9"
         inkscape:connector-curvature="0"
         style="fill:none;stroke:#000000;stroke-width:5" />
      <path
         d="m 247.53131,93.083344 c 0,1 0,2 0,3 0,1 0,3 0,2 l 0,-1 0,-1 -1,0"
         id="svg_10"
         inkscape:connector-curvature="0"
         style="fill:#000000;stroke:#000000;stroke-width:5" />
      <circle
         id="svg_11"
         r="15.132746"
         cy="139.08334"
         cx="91.531311"
         sodipodi:cx="91.531311"
         sodipodi:cy="139.08334"
         sodipodi:rx="15.132746"
         sodipodi:ry="15.132746"
         style="fill:#000000;stroke:#000000;stroke-width:5"
         d="m 106.66406,139.08334 c 0,8.35759 -6.775164,15.13275 -15.132749,15.13275 -8.357585,0 -15.132746,-6.77516 -15.132746,-15.13275 0,-8.35758 6.775161,-15.13274 15.132746,-15.13274 8.357585,0 15.132749,6.77516 15.132749,15.13274 z" />
      <circle
         id="svg_12"
         r="18.027756"
         cy="89.083344"
         cx="240.53131"
         sodipodi:cx="240.53131"
         sodipodi:cy="89.083344"
         sodipodi:rx="18.027756"
         sodipodi:ry="18.027756"
         style="fill:#000000;stroke:#000000;stroke-width:5"
         d="m 258.55907,89.083344 c 0,9.956454 -8.0713,18.027756 -18.02776,18.027756 -9.95645,0 -18.02775,-8.071302 -18.02775,-18.027756 0,-9.956455 8.0713,-18.027756 18.02775,-18.027756 9.95646,0 18.02776,8.071301 18.02776,18.027756 z" />
      <circle
         id="svg_13"
         r="13.341664"
         cy="241.08334"
         cx="292.53131"
         sodipodi:cx="292.53131"
         sodipodi:cy="241.08334"
         sodipodi:rx="13.341664"
         sodipodi:ry="13.341664"
         style="fill:#000000;stroke:#000000;stroke-width:5"
         d="m 305.87298,241.08334 c 0,7.3684 -5.97327,13.34167 -13.34167,13.34167 -7.3684,0 -13.34166,-5.97327 -13.34166,-13.34167 0,-7.36839 5.97326,-13.34166 13.34166,-13.34166 7.3684,0 13.34167,5.97327 13.34167,13.34166 z" />
      <circle
         id="svg_14"
         r="14.317821"
         cy="288.08334"
         cx="141.53131"
         sodipodi:cx="141.53131"
         sodipodi:cy="288.08334"
         sodipodi:rx="14.317821"
         sodipodi:ry="14.317821"
         style="fill:#000000;stroke:#000000;stroke-width:5"
         d="m 155.84913,288.08334 c 0,7.90752 -6.41031,14.31782 -14.31782,14.31782 -7.90751,0 -14.31782,-6.4103 -14.31782,-14.31782 0,-7.90751 6.41031,-14.31782 14.31782,-14.31782 7.90751,0 14.31782,6.41031 14.31782,14.31782 z" />
    </g>
  </g>
  <path
     style="color:#000000;fill:#000000;fill-opacity:1;fill-rule:nonzero;stroke:none;stroke-width:3.27118635;marker:none;visibility:visible;display:inline;overflow:visible;enable-background:accumulate"
     d="m 180.862,306.87305 c -45.57921,-9.68248 -80.13723,-49.588 -82.646401,-95.43514 -2.128621,-38.89355 15.724571,-72.88529 49.616841,-94.46856 31.231,-19.888504 74.11953,-21.223818 106.96753,-3.33039 34.98742,19.05884 55.56499,52.61492 55.56499,90.61042 0,29.86674 -9.5151,52.77507 -30.65655,73.80796 -25.95223,25.81899 -62.62586,36.51009 -98.84641,28.81571 z"
     id="path3772"
     inkscape:connector-curvature="0" />
  <path
     style="color:#000000;fill:url(#pattern5430);fill-opacity:1;fill-rule:nonzero;stroke:#000000;stroke-width:20;stroke-linecap:butt;stroke-linejoin:miter;stroke-miterlimit:4;stroke-opacity:1;stroke-dasharray:none;stroke-dashoffset:0;marker:none;visibility:visible;display:inline;overflow:visible;enable-background:accumulate;opacity:0.32083333"
     d="m 184.7262,393.60082 c -1.78952,-0.4966 -4.6296,-7.43783 -8.80082,-21.50949 -3.38726,-11.42696 -6.67249,-21.74785 -7.30052,-22.9353 -0.62802,-1.18748 -7.61766,-4.33514 -15.53254,-6.99485 l -14.3907,-4.83582 -18.75251,14.08538 c -14.21407,10.67647 -19.60649,13.8601 -22.281049,13.15452 -5.12389,-1.35173 -25.609036,-17.20541 -25.609036,-19.81909 0,-1.22064 3.312077,-11.22547 7.36017,-22.23293 4.048093,-11.00746 7.360169,-20.70536 7.360169,-21.5509 0,-0.84554 -3.401466,-6.05446 -7.558814,-11.57537 -4.157347,-5.52091 -7.891436,-10.89357 -8.297974,-11.93924 -0.538706,-1.38561 -7.525754,-1.65352 -25.763969,-0.98785 l -25.024807,0.91336 -3.453295,-9.22975 c -5.214191,-13.93618 -7.4943857,-24.12539 -5.673614,-25.35295 0.864917,-0.58314 9.987363,-6.77173 20.272101,-13.75246 L 49.978517,216.34586 49.459631,201.23299 48.940748,186.12013 29.423614,173.21844 C 17.518972,165.34894 9.9439861,159.28843 10.002635,157.6803 c 0.05288,-1.45004 2.123422,-8.52458 4.601196,-15.72119 l 4.505043,-13.08475 25.54308,-0.81779 25.543079,-0.8178 5.229687,-7.36017 c 2.876326,-4.04809 7.06297,-9.33146 9.303655,-11.74082 4.619677,-4.96744 5.215831,-1.90049 -6.704011,-34.489231 L 72.182511,57.676973 81.38472,50.454474 c 5.061216,-3.972375 11.597615,-8.51251 14.525334,-10.089189 l 5.323126,-2.866691 19.11794,14.359865 c 14.35008,10.778625 19.992,14.135603 22.62267,13.460628 1.9276,-0.494582 9.06967,-2.571175 15.87126,-4.614653 l 12.36653,-3.715413 2.86957,-9.853939 c 1.57827,-5.419666 4.71327,-15.9497 6.96668,-23.400075 l 4.09711,-13.546136 18.10043,0.46139 18.1004,0.46139 6.7874,22.757896 c 3.73833,12.534497 7.86256,23.30515 9.18078,23.976114 1.31636,0.670018 8.06266,3.057346 14.99179,5.305173 l 12.59838,4.086956 19.25332,-14.430801 c 16.5086,-12.373564 19.7257,-14.186277 22.56687,-12.715545 5.46355,2.828212 25.39404,17.852071 25.39404,19.142352 0,0.658951 -3.25471,10.048231 -7.23271,20.865065 -3.97799,10.816834 -7.47407,20.800309 -7.76906,22.185499 -0.295,1.38518 3.35789,7.7506 8.11751,14.14536 l 8.65388,11.62685 25.07812,0 25.07814,0 5.17244,15.59869 c 2.84483,8.57929 4.8106,16.18414 4.36837,16.89968 -0.44221,0.71553 -9.61761,7.12843 -20.38975,14.25087 l -19.5857,12.94991 0.0757,15.026 0.0757,15.026 20.25489,13.41708 c 11.1402,7.3794 20.25491,13.73496 20.25491,14.12346 0,0.38849 -2.33243,7.74032 -5.18315,16.33737 l -5.18315,15.63102 -25.10588,-0.76307 -25.1059,-0.76305 -3.38569,5.47819 c -1.86214,3.01301 -5.89648,8.48338 -8.96521,12.15641 -3.06872,3.67302 -5.5795,7.58541 -5.5795,8.69418 0,1.10879 3.31208,11.02207 7.36017,22.02953 4.04809,11.00746 7.36017,20.97897 7.36017,22.1589 0,1.95161 -21.10936,17.69839 -26.49712,19.76587 -1.26837,0.48672 -10.7721,-5.50603 -21.58729,-13.61226 l -19.32133,-14.48179 -14.95603,4.93437 c -8.22582,2.71389 -15.29903,5.71439 -15.71825,6.66774 -0.4192,0.95336 -3.75224,11.30159 -7.40675,22.99609 l -6.64455,21.26271 -15.49155,0.24679 c -8.52035,0.13576 -16.68052,-0.0831 -18.13369,-0.48644 l 5e-5,0 z"
     id="path3067"
     inkscape:connector-curvature="0" />
  <path
     style="color:#000000;fill:#000000;fill-opacity:1;fill-rule:nonzero;stroke:#000000;stroke-width:9.56181145000000043;stroke-linecap:butt;stroke-linejoin:miter;stroke-miterlimit:4;stroke-opacity:1;stroke-dasharray:none;stroke-dashoffset:0;marker:none;visibility:visible;display:inline;overflow:visible;enable-background:accumulate"
     d="m 193.67204,298.48132 c -0.85555,-0.23742 -2.21337,-3.55596 -4.20759,-10.28349 -1.61942,-5.46312 -3.19005,-10.39744 -3.49031,-10.96515 -0.30025,-0.56772 -3.64193,-2.07259 -7.42596,-3.34417 l -6.88006,-2.31196 -8.9654,6.73409 c -6.79561,5.10432 -9.37367,6.62638 -10.65235,6.28905 -2.44969,-0.64625 -12.24344,-8.22575 -12.24344,-9.47532 0,-0.58358 1.58347,-5.36679 3.51882,-10.62936 1.93536,-5.26256 3.51883,-9.89904 3.51883,-10.30328 0,-0.40424 -1.62621,-2.89458 -3.6138,-5.53408 -1.98758,-2.63949 -3.77282,-5.20811 -3.96718,-5.70803 -0.25755,-0.66245 -3.59799,-0.79054 -12.31751,-0.47229 l -11.96413,0.43667 -1.65098,-4.41265 c -2.49286,-6.66276 -3.583,-11.53413 -2.7125,-12.12101 0.4135,-0.27879 4.77486,-3.2375 9.6919,-6.57492 l 8.94006,-6.06803 -0.24807,-7.22532 -0.24807,-7.22532 -9.33096,-6.16818 c -5.6915,-3.76233 -9.31303,-6.6598 -9.28499,-7.42864 0.0253,-0.69325 1.01519,-4.07552 2.19979,-7.51615 l 2.15382,-6.25569 12.2119,-0.39098 12.21191,-0.39098 2.50026,-3.51883 c 1.37515,-1.93536 3.37674,-4.46129 4.44799,-5.61318 2.20863,-2.37488 2.49364,-0.9086 -3.20512,-16.48898 l -2.79294,-7.63586 4.39949,-3.453 c 2.41972,-1.89916 5.54471,-4.06976 6.94443,-4.82355 l 2.54493,-1.37054 9.14011,6.86532 c 6.86064,5.15316 9.55799,6.7581 10.81569,6.4354 0.92156,-0.23646 4.33612,-1.22926 7.5879,-2.20623 l 5.91232,-1.7763 1.37191,-4.71107 c 0.75456,-2.5911 2.25337,-7.62541 3.33071,-11.18736 l 1.95879,-6.47628 8.65364,0.22059 8.65363,0.22058 3.245,10.88034 c 1.78726,5.99262 3.75901,11.14197 4.38924,11.46275 0.62934,0.32033 3.85468,1.46169 7.16743,2.53636 l 6.02317,1.95393 9.20483,-6.89923 c 7.89261,-5.91568 9.43067,-6.78233 10.78901,-6.07918 2.61207,1.35214 12.14065,8.53491 12.14065,9.15178 0,0.31503 -1.55605,4.80396 -3.45789,9.97539 -1.90184,5.17142 -3.57328,9.94443 -3.71431,10.60668 -0.14104,0.66224 1.60537,3.70549 3.8809,6.76276 l 4.13734,5.55869 11.98961,0 11.98963,0 2.47289,7.45758 c 1.36009,4.10168 2.2999,7.73749 2.08848,8.07958 -0.21142,0.34209 -4.59809,3.40804 -9.74815,6.81321 l -9.36374,6.19123 0.0362,7.18379 0.0362,7.18379 9.68368,6.41458 c 5.32602,3.52802 9.68368,6.56655 9.68368,6.75229 0,0.18573 -1.11512,3.70058 -2.47802,7.81074 l -2.47801,7.47305 -12.00289,-0.36482 -12.00289,-0.36481 -1.61867,2.61908 c -0.89027,1.44049 -2.81905,4.05582 -4.28618,5.81186 -1.46713,1.75604 -2.66751,3.62651 -2.66751,4.15661 0,0.5301 1.58348,5.26954 3.51883,10.53211 1.93535,5.26256 3.51883,10.02985 3.51883,10.59396 0,0.93305 -10.09219,8.46143 -12.66803,9.44988 -0.60639,0.23269 -5.15004,-2.63239 -10.32068,-6.5079 l -9.23734,-6.92361 -7.15034,2.35908 c -3.93269,1.29749 -7.31432,2.732 -7.51475,3.18778 -0.20041,0.4558 -1.79391,5.40319 -3.54109,10.99422 l -3.1767,10.1655 -7.40636,0.11799 c -4.0735,0.0649 -7.9748,-0.0397 -8.66955,-0.23256 l 2e-5,0 z"
     id="path3067-3"
     inkscape:connector-curvature="0" />
  <path
     style="color:#000000;fill:#312318;fill-opacity:1;fill-rule:nonzero;stroke:#000000;stroke-width:3.27118635;stroke-linecap:butt;stroke-linejoin:miter;stroke-miterlimit:4;stroke-opacity:1;stroke-dasharray:none;stroke-dashoffset:0;marker:none;visibility:visible;display:inline;overflow:visible;enable-background:accumulate"
     d=""
     id="path5463"
     inkscape:connector-curvature="0" />
  <path
     style="color:#000000;fill:#312318;fill-opacity:1;fill-rule:nonzero;stroke:#000000;stroke-width:3.27118635;stroke-linecap:butt;stroke-linejoin:miter;stroke-miterlimit:4;stroke-opacity:1;stroke-dasharray:none;stroke-dashoffset:0;marker:none;visibility:visible;display:inline;overflow:visible;enable-background:accumulate"
     d=""
     id="path5465"
     inkscape:connector-curvature="0" />
  <path
     style="color:#000000;fill:#312318;fill-opacity:1;fill-rule:nonzero;stroke:#000000;stroke-width:3.27118635;stroke-linecap:butt;stroke-linejoin:miter;stroke-miterlimit:4;stroke-opacity:1;stroke-dasharray:none;stroke-dashoffset:0;marker:none;visibility:visible;display:inline;overflow:visible;enable-background:accumulate"
     d=""
     id="path5467"
     inkscape:connector-curvature="0" />
  <path
     style="color:#000000;fill:#312318;fill-opacity:1;fill-rule:nonzero;stroke:#000000;stroke-width:3.27118635;stroke-linecap:butt;stroke-linejoin:miter;stroke-miterlimit:4;stroke-opacity:1;stroke-dasharray:none;stroke-dashoffset:0;marker:none;visibility:visible;display:inline;overflow:visible;enable-background:accumulate"
     d=""
     id="path5469"
     inkscape:connector-curvature="0" />
  <path
     style="color:#000000;fill:#312318;fill-opacity:1;fill-rule:nonzero;stroke:#000000;stroke-width:3.27118635;stroke-linecap:butt;stroke-linejoin:miter;stroke-miterlimit:4;stroke-opacity:1;stroke-dasharray:none;stroke-dashoffset:0;marker:none;visibility:visible;display:inline;overflow:visible;enable-background:accumulate"
     d=""
     id="path5471"
     inkscape:connector-curvature="0" />
  <path
     style="color:#000000;fill:#312318;fill-opacity:1;fill-rule:nonzero;stroke:#000000;stroke-width:3.27118635;stroke-linecap:butt;stroke-linejoin:miter;stroke-miterlimit:4;stroke-opacity:1;stroke-dasharray:none;stroke-dashoffset:0;marker:none;visibility:visible;display:inline;overflow:visible;enable-background:accumulate"
     d=""
     id="path5473"
     inkscape:connector-curvature="0" />
  <path
     sodipodi:type="arc"
     style="opacity:0.32083333;fill:#000000;fill-opacity:1;stroke:none"
     id="path5475"
     sodipodi:cx="206.08475"
     sodipodi:cy="205.40488"
     sodipodi:rx="14.720339"
     sodipodi:ry="13.902542"
     d="m 198.31255,217.21162 a 14.720339,13.902542 0 1 1 22.48213,-12.32947"
     sodipodi:start="2.1270287"
     sodipodi:end="6.2455772"
     sodipodi:open="true" />
  <g
     inkscape:groupmode="layer"
     id="layer2"
     inkscape:label="Layer"
     sodipodi:insensitive="true" />
  <g
     inkscape:groupmode="layer"
     id="layer3"
     inkscape:label="Layer#1">
    <path
       sodipodi:type="arc"
       style="opacity:0.10859729;fill:#ffffff;fill-opacity:1;stroke:none"
       id="path5481"
       sodipodi:cx="202.81357"
       sodipodi:cy="213.58284"
       sodipodi:rx="22.898306"
       sodipodi:ry="25.351696"
       d="m 225.71187,213.58284 a 22.898306,25.351696 0 1 1 -45.79661,0 22.898306,25.351696 0 1 1 45.79661,0 z"
       transform="matrix(0.72057732,0,0,0.65084403,55.179184,67.069488)" />
  </g>
</svg>
